<svg width="33" height="32" viewBox="0 0 33 32" fill="none" xmlns="http://www.w3.org/2000/svg">
<g clip-path="url(#clip0_1128_14468)">
<path d="M32.8501 12.19H31.3201V19.81H32.8501V12.19Z" fill="#000001"/>
<path d="M31.32 19.81H29.8V22.86H31.32V19.81Z" fill="#000001"/>
<path d="M31.32 9.14001H29.8V12.19H31.32V9.14001Z" fill="#000001"/>
<path d="M29.8002 22.86H28.2802V25.9H29.8002V22.86Z" fill="#000001"/>
<path d="M29.8002 6.09998H28.2802V9.13998H29.8002V6.09998Z" fill="#000001"/>
<path d="M28.2801 25.9H26.7501V27.43H28.2801V25.9Z" fill="#000001"/>
<path d="M28.2801 4.57001H26.7501V6.10001H28.2801V4.57001Z" fill="#000001"/>
<path d="M26.7501 27.43H23.7001V28.95H26.7501V27.43Z" fill="#000001"/>
<path d="M26.7501 3.04999H23.7001V4.56999H26.7501V3.04999Z" fill="#000001"/>
<path d="M14.56 18.29H16.09V19.81H17.61V18.29H19.13V16.76H25.23V15.24H19.13V13.71H17.61V4.57001H16.09V13.71H14.56V15.24H13.04V16.76H14.56V18.29Z" fill="#000001"/>
<path d="M23.7002 28.95H20.6602V30.48H23.7002V28.95Z" fill="#000001"/>
<path d="M23.7002 1.52002H20.6602V3.05002H23.7002V1.52002Z" fill="#000001"/>
<path d="M20.66 30.48H13.04V32H20.66V30.48Z" fill="#000001"/>
<path d="M20.66 0H13.04V1.52H20.66V0Z" fill="#000001"/>
<path d="M13.0401 28.95H9.99011V30.48H13.0401V28.95Z" fill="#000001"/>
<path d="M13.0401 1.52002H9.99011V3.05002H13.0401V1.52002Z" fill="#000001"/>
<path d="M9.99006 27.43H6.94006V28.95H9.99006V27.43Z" fill="#000001"/>
<path d="M9.99006 3.04999H6.94006V4.56999H9.99006V3.04999Z" fill="#000001"/>
<path d="M6.94004 25.9H5.42004V27.43H6.94004V25.9Z" fill="#000001"/>
<path d="M6.94004 4.57001H5.42004V6.10001H6.94004V4.57001Z" fill="#000001"/>
<path d="M5.42015 22.86H3.90015V25.9H5.42015V22.86Z" fill="#000001"/>
<path d="M5.42015 6.09998H3.90015V9.13998H5.42015V6.09998Z" fill="#000001"/>
<path d="M3.90012 19.81H2.37012V22.86H3.90012V19.81Z" fill="#000001"/>
<path d="M3.90012 9.14001H2.37012V12.19H3.90012V9.14001Z" fill="#000001"/>
<path d="M2.3701 12.19H0.850098V19.81H2.3701V12.19Z" fill="#000001"/>
</g>
<defs>
<clipPath id="clip0_1128_14468">
<rect width="32" height="32" fill="white" transform="translate(0.850098)"/>
</clipPath>
</defs>
</svg>
